<svg width="18" height="20" viewBox="0 0 18 20" fill="none" xmlns="http://www.w3.org/2000/svg">
<path d="M17.5 16.594V16.9098C17.5 18.3403 16.3403 19.5 14.9098 19.5H3.09017C1.65966 19.5 0.5 18.3403 0.5 16.9098V16.594C0.5 15.8065 0.944929 15.0866 1.64929 14.7344L3.54033 13.7889C5.2355 12.9413 7.10474 12.5 9 12.5C10.8953 12.5 12.7645 12.9413 14.4597 13.7889L16.3507 14.7344C17.0551 15.0866 17.5 15.8065 17.5 16.594Z" stroke="#252525"/>
<path d="M9 9.5C6.51472 9.5 4.5 7.48528 4.5 5C4.5 2.51472 6.51472 0.5 9 0.5C11.4853 0.5 13.5 2.51472 13.5 5C13.5 7.48528 11.4853 9.5 9 9.5Z" stroke="#252525"/>
</svg>
