<svg width="28" height="28" viewBox="0 0 28 28" fill="none" xmlns="http://www.w3.org/2000/svg">
<path fill-rule="evenodd" clip-rule="evenodd" d="M7 3C6.44772 3 6 3.44772 6 4V24C6 24.5523 6.44772 25 7 25H21C21.5523 25 22 24.5523 22 24V7.41421C22 7.149 21.8946 6.89464 21.7071 6.70711L18.2929 3.29289C18.1054 3.10536 17.851 3 17.5858 3H7ZM9.5 9C9.22386 9 9 9.22386 9 9.5C9 9.77614 9.22386 10 9.5 10H18.5C18.7761 10 19 9.77614 19 9.5C19 9.22386 18.7761 9 18.5 9H9.5ZM9 13.5C9 13.2239 9.22386 13 9.5 13H18.5C18.7761 13 19 13.2239 19 13.5C19 13.7761 18.7761 14 18.5 14H9.5C9.22386 14 9 13.7761 9 13.5ZM9.5 17C9.22386 17 9 17.2239 9 17.5C9 17.7761 9.22386 18 9.5 18H18.5C18.7761 18 19 17.7761 19 17.5C19 17.2239 18.7761 17 18.5 17H9.5Z" fill="#252525"/>
</svg>
