<svg width="27" height="24" viewBox="0 0 27 24" fill="none" xmlns="http://www.w3.org/2000/svg">
<path d="M19.8693 0.857178H7.15932C3.22726 0.857178 0.0284691 3.66658 0.0284691 7.45324L0.0289762 11.6701C-0.0313688 13.2851 -0.21088 21.3107 2.20089 23.1357C2.33629 23.2382 2.50262 23.2915 2.67047 23.2915C2.74856 23.2915 2.82716 23.2802 2.90323 23.2568C3.02164 23.2203 3.35597 23.0375 3.4012 22.8885C3.76631 21.6852 5.15374 18.5637 7.15983 18.5637H19.8693C23.8014 18.5637 27.0002 15.4832 27.0002 11.6965V7.45373C27.0007 3.66609 23.8009 0.857178 19.8693 0.857178ZM26.0363 11.6965C26.0363 14.6754 22.9626 17.5725 19.8693 17.5725H7.15983C4.73893 17.5725 3.63477 20.3584 2.67047 22.2157C0.964342 20.5873 0.852272 14.7008 0.964341 11.6701V7.45324C0.964341 4.47431 4.06601 1.78581 7.15932 1.78581H19.8693C22.9626 1.78581 26.0363 4.4748 26.0363 7.45373V11.6965Z" fill="#252525"/>
</svg>
