<svg width="16" height="14" viewBox="0 0 16 14" fill="none" xmlns="http://www.w3.org/2000/svg">
<path d="M3.33301 8V0H0.666342V8H3.33301ZM5.99967 0C5.64605 0 5.30691 0.140476 5.05687 0.390524C4.80682 0.640573 4.66634 0.979711 4.66634 1.33333V8C4.66634 8.36667 4.81301 8.7 5.05968 8.94L9.44634 13.3333L10.153 12.6267C10.333 12.4467 10.4463 12.2 10.4463 11.92L10.4263 11.7133L9.79301 8.66667H13.9997C14.7397 8.66667 15.333 8.06667 15.333 7.33333V6C15.333 5.82667 15.2997 5.66667 15.2397 5.51333L13.2263 0.813333C13.0263 0.333333 12.553 0 11.9997 0H5.99967ZM5.99967 1.33333H12.0197L13.9997 6V7.33333H8.14634L8.89967 10.88L5.99967 7.98V1.33333Z" fill="#252525"/>
</svg>
