<svg width="37" height="41" viewBox="0 0 37 41" fill="none" xmlns="http://www.w3.org/2000/svg">
<path d="M11.1495 12.5121H12.9722V15.9494H11.1495V12.5121ZM11.1495 33.71V30.2726H12.9722V33.71H11.1495ZM24.0663 12.5121H25.889V15.9494H24.0663V12.5121ZM22.6598 16.6527V17.3559V28.8662V29.5694V34.4132V35.1164V40.1684H14.3787V35.1164V34.4132V29.5694V28.8662V17.3559V16.6527V11.8089V11.1056V5.3505C14.3787 3.06373 16.2325 1.20994 18.5193 1.20994C20.806 1.20994 22.6598 3.06373 22.6598 5.3505V11.1056V11.8089V16.6527ZM24.0663 30.2726H25.889V33.71H24.0663V30.2726ZM35.5766 5.3505V40.1684H27.2955V35.1164V34.4132V29.5694V28.8662V17.3559V16.6527V11.8089V11.1056V5.3505C27.2955 3.06373 29.1493 1.20994 31.436 1.20994C33.7228 1.20994 35.5766 3.06373 35.5766 5.3505ZM9.74306 34.4132V35.1164V40.1684H1.46196V5.3505C1.46196 3.06373 3.31575 1.20994 5.60251 1.20994C7.88927 1.20994 9.74306 3.06373 9.74306 5.3505V11.1056V11.8089V16.6527V17.3559V28.8662V29.5694V34.4132Z" stroke="#0382E4" stroke-width="1.40646"/>
</svg>
