<svg width="28" height="28" viewBox="0 0 28 28" fill="none" xmlns="http://www.w3.org/2000/svg">
<path fill-rule="evenodd" clip-rule="evenodd" d="M14 4C8.47715 4 4 8.47715 4 14C4 19.5228 8.47715 24 14 24C19.5228 24 24 19.5228 24 14C24 8.47715 19.5228 4 14 4ZM13.3917 15.12C13.2762 15.3867 13.2184 15.6978 13.2184 16.0533H14.5517C14.5517 15.6889 14.6362 15.3822 14.8051 15.1333C14.9828 14.8844 15.2539 14.5956 15.6184 14.2667C15.9028 14.0089 16.1295 13.7867 16.2984 13.6C16.4673 13.4133 16.6095 13.1822 16.7251 12.9067C16.8495 12.6222 16.9117 12.2978 16.9117 11.9333C16.9117 11.1956 16.6273 10.6178 16.0584 10.2C15.4895 9.77333 14.7206 9.56 13.7517 9.56C12.9873 9.56 12.3117 9.68889 11.7251 9.94667C11.1473 10.2044 10.6717 10.5733 10.2984 11.0533L11.2717 11.7467C11.8228 11.0444 12.6184 10.6933 13.6584 10.6933C14.2539 10.6933 14.7206 10.8267 15.0584 11.0933C15.3962 11.3511 15.5651 11.6978 15.5651 12.1333C15.5651 12.4533 15.4806 12.7289 15.3117 12.96C15.1428 13.1822 14.8806 13.4489 14.5251 13.76C14.2406 14.0178 14.0095 14.24 13.8317 14.4267C13.6628 14.6133 13.5162 14.8444 13.3917 15.12ZM13.2717 18.84C13.4406 19 13.6495 19.08 13.8984 19.08C14.1384 19.08 14.3384 19 14.4984 18.84C14.6673 18.6711 14.7517 18.4667 14.7517 18.2267C14.7517 17.9867 14.6717 17.7867 14.5117 17.6267C14.3517 17.4578 14.1473 17.3733 13.8984 17.3733C13.6495 17.3733 13.4406 17.4578 13.2717 17.6267C13.1117 17.7867 13.0317 17.9867 13.0317 18.2267C13.0317 18.4667 13.1117 18.6711 13.2717 18.84Z" fill="#252525"/>
</svg>
