<svg width="20" height="20" viewBox="0 0 20 20" fill="none" xmlns="http://www.w3.org/2000/svg">
<mask id="path-1-inside-1" fill="white">
<path d="M0 10C0 4.47715 4.47715 0 10 0C15.5228 0 20 4.47715 20 10C20 15.5228 15.5228 20 10 20C4.47715 20 0 15.5228 0 10Z"/>
</mask>
<path d="M10 19C5.02944 19 1 14.9706 1 10H-1C-1 16.0751 3.92487 21 10 21V19ZM19 10C19 14.9706 14.9706 19 10 19V21C16.0751 21 21 16.0751 21 10H19ZM10 1C14.9706 1 19 5.02944 19 10H21C21 3.92487 16.0751 -1 10 -1V1ZM10 -1C3.92487 -1 -1 3.92487 -1 10H1C1 5.02944 5.02944 1 10 1V-1Z" fill="#252525" mask="url(#path-1-inside-1)"/>
<path d="M9.21839 12.0533C9.21839 11.6978 9.27616 11.3867 9.39172 11.12C9.51616 10.8444 9.66283 10.6133 9.83172 10.4267C10.0095 10.24 10.2406 10.0178 10.5251 9.76C10.8806 9.44889 11.1428 9.18222 11.3117 8.96C11.4806 8.72889 11.5651 8.45333 11.5651 8.13333C11.5651 7.69778 11.3962 7.35111 11.0584 7.09333C10.7206 6.82667 10.2539 6.69333 9.65839 6.69333C8.61839 6.69333 7.82283 7.04444 7.27172 7.74667L6.29839 7.05333C6.67172 6.57333 7.14727 6.20444 7.72505 5.94667C8.31172 5.68889 8.98727 5.56 9.75172 5.56C10.7206 5.56 11.4895 5.77333 12.0584 6.2C12.6273 6.61778 12.9117 7.19555 12.9117 7.93333C12.9117 8.29778 12.8495 8.62222 12.7251 8.90667C12.6095 9.18222 12.4673 9.41333 12.2984 9.6C12.1295 9.78667 11.9028 10.0089 11.6184 10.2667C11.2539 10.5956 10.9828 10.8844 10.8051 11.1333C10.6362 11.3822 10.5517 11.6889 10.5517 12.0533H9.21839ZM9.89839 15.08C9.6495 15.08 9.44061 15 9.27172 14.84C9.11172 14.6711 9.03172 14.4667 9.03172 14.2267C9.03172 13.9867 9.11172 13.7867 9.27172 13.6267C9.44061 13.4578 9.6495 13.3733 9.89839 13.3733C10.1473 13.3733 10.3517 13.4578 10.5117 13.6267C10.6717 13.7867 10.7517 13.9867 10.7517 14.2267C10.7517 14.4667 10.6673 14.6711 10.4984 14.84C10.3384 15 10.1384 15.08 9.89839 15.08Z" fill="#252525"/>
</svg>
