<svg width="20" height="20" viewBox="0 0 20 20" fill="none" xmlns="http://www.w3.org/2000/svg">
<path d="M13 19.5V15.75C13 14.3693 11.8807 13.25 10.5 13.25H9.5C8.11929 13.25 7 14.3693 7 15.75V19.5H2C1.17157 19.5 0.5 18.8284 0.5 18V10.5435C0.5 10.1376 0.664438 9.74913 0.955781 9.46661L8.95578 1.70904C9.53761 1.14484 10.4624 1.14484 11.0442 1.70904L14.4017 4.96482C14.8124 5.36307 15.5 5.07206 15.5 4.49999V3.74999C15.5 3.33577 15.8358 2.99999 16.25 2.99999C16.6642 2.99999 17 3.33577 17 3.74999V6.42621C17 7.10258 17.2741 7.7501 17.7596 8.22096L19.0442 9.46661C19.3356 9.74913 19.5 10.1376 19.5 10.5435V18C19.5 18.8284 18.8284 19.5 18 19.5H13Z" stroke="#0070C2"/>
</svg>
