<svg width="16" height="14" viewBox="0 0 16 14" fill="none" xmlns="http://www.w3.org/2000/svg">
<path d="M3.33301 6V14H0.666342V6H3.33301ZM5.99967 14C5.64605 14 5.30691 13.8595 5.05687 13.6095C4.80682 13.3594 4.66634 13.0203 4.66634 12.6667V6C4.66634 5.63333 4.81301 5.3 5.05968 5.06L9.44634 0.666668L10.153 1.37333C10.333 1.55333 10.4463 1.8 10.4463 2.08L10.4263 2.28667L9.79301 5.33333H13.9997C14.7397 5.33333 15.333 5.93333 15.333 6.66667V8C15.333 8.17333 15.2997 8.33333 15.2397 8.48667L13.2263 13.1867C13.0263 13.6667 12.553 14 11.9997 14H5.99967ZM5.99967 12.6667H12.0197L13.9997 8V6.66667H8.14634L8.89967 3.12L5.99967 6.02V12.6667Z" fill="#0070C2"/>
</svg>
