<svg width="24" height="24" viewBox="0 0 24 24" fill="none" xmlns="http://www.w3.org/2000/svg">
<path fill-rule="evenodd" clip-rule="evenodd" d="M4 9C4 4.58172 7.58172 1 12 1C16.4183 1 20 4.58172 20 9L19.9999 9.0286C19.9989 9.33743 19.9803 9.64214 19.9451 9.94179C19.6379 12.6048 17.926 16.5554 12 23.6667C6.07435 16.5559 4.3623 12.6053 4.05491 9.94232C4.01865 9.63326 4 9.31881 4 9.00001V9ZM12 7C10.8954 7 10 7.89543 10 9C10 10.1046 10.8954 11 12 11C13.1046 11 14 10.1046 14 9C14 7.89543 13.1046 7 12 7Z" fill="#252525"/>
</svg>
