<svg width="28" height="28" viewBox="0 0 28 28" fill="none" xmlns="http://www.w3.org/2000/svg">
<path fill-rule="evenodd" clip-rule="evenodd" d="M5 4C4.44772 4 4 4.44772 4 5V23C4 23.5523 4.44772 24 5 24H23C23.5523 24 24 23.5523 24 23V5C24 4.44772 23.5523 4 23 4H5ZM8 8C7.44772 8 7 8.44771 7 9C7 9.55229 7.44772 10 8 10H20C20.5523 10 21 9.55229 21 9C21 8.44771 20.5523 8 20 8H8ZM7 14C7 13.4477 7.44772 13 8 13H20C20.5523 13 21 13.4477 21 14C21 14.5523 20.5523 15 20 15H8C7.44772 15 7 14.5523 7 14ZM8 18C7.44772 18 7 18.4477 7 19C7 19.5523 7.44772 20 8 20H15C15.5523 20 16 19.5523 16 19C16 18.4477 15.5523 18 15 18H8Z" fill="#252525"/>
</svg>
