<svg width="24" height="24" viewBox="0 0 24 24" fill="none" xmlns="http://www.w3.org/2000/svg">
<path fill-rule="evenodd" clip-rule="evenodd" d="M11.9998 2C11.0793 2 10.3331 2.74619 10.3331 3.66666L10.3334 3.69843C7.52265 3.99771 5.3332 6.37651 5.3332 9.26669V11.6667V17H18.6665V11.6667V9.26669C18.6665 6.37647 16.477 3.99765 13.6662 3.69842L13.6665 3.66666C13.6665 2.74619 12.9203 2 11.9998 2ZM10.3331 20.3333H3.6665V18.6667L5.33317 17H18.6665L20.3331 18.6667V20.3333H13.6665C13.6664 21.2538 12.9202 22 11.9998 22C11.0793 22 10.3331 21.2538 10.3331 20.3333Z" fill="#252525"/>
</svg>
