<svg width="24" height="24" viewBox="0 0 24 24" fill="none" xmlns="http://www.w3.org/2000/svg">
<g clip-path="url(#clip0)">
<path fill-rule="evenodd" clip-rule="evenodd" d="M4.13212 4.13228C6.56088 1.70352 10.4987 1.70352 12.9274 4.13228C14.8236 6.02847 15.2394 8.84445 14.1748 11.144L21.0519 18.0211L21.574 21.9109L18.4622 21.4932L17.5798 20.6109L18.638 19.5527L17.7557 18.6703L16.6975 19.7285L15.8151 18.8461L16.1519 18.5094L15.2695 17.627L14.9328 17.9638L14.0504 17.0814L14.7239 16.4079L13.8416 15.5255L13.168 16.1991L11.1439 14.175C8.84435 15.2396 6.02833 14.8238 4.13212 12.9276C1.70336 10.4988 1.70336 6.56104 4.13212 4.13228ZM5.23162 5.23174C5.83881 4.62455 6.82326 4.62455 7.43045 5.23174C8.03764 5.83893 8.03764 6.82338 7.43045 7.43057C6.82326 8.03776 5.83881 8.03776 5.23162 7.43057C4.62443 6.82338 4.62443 5.83893 5.23162 5.23174Z" fill="#252525"/>
</g>
<defs>
<clipPath id="clip0">
<rect width="24" height="24" fill="white"/>
</clipPath>
</defs>
</svg>
