<svg width="38" height="42" viewBox="0 0 38 42" fill="none" xmlns="http://www.w3.org/2000/svg">
<path fill-rule="evenodd" clip-rule="evenodd" d="M8.17859 1.32007H29.7065C33.2734 1.32007 36.1649 4.21158 36.1649 7.77845V33.612C36.1649 37.1788 33.2734 40.0703 29.7065 40.0703H8.17859C4.61173 40.0703 1.72021 37.1788 1.72021 33.612V7.77845C1.72021 4.21158 4.61173 1.32007 8.17859 1.32007ZM18.9426 34.6884C24.8873 34.6884 29.7065 29.8692 29.7065 23.9244C29.7065 17.9796 24.8873 13.1604 18.9426 13.1604C12.9978 13.1604 8.17859 17.9796 8.17859 23.9244C8.17859 29.8692 12.9978 34.6884 18.9426 34.6884Z" stroke="#0382E4" stroke-width="2.29"/>
<path d="M18.9426 31.4592C23.1039 31.4592 26.4773 28.0857 26.4773 23.9244C22.1718 26.0772 15.7134 26.0772 11.4078 23.9244C11.4078 28.0857 14.7812 31.4592 18.9426 31.4592Z" fill="#0382E4"/>
<path d="M16.4425 8.82012C16.4425 10.0091 14.9872 10.0701 10.8174 10.0701C6.64767 10.0701 5.19238 10.0091 5.19238 8.82012C5.19238 7.63117 6.64767 7.57011 10.8174 7.57011C14.9872 7.57011 16.4425 7.63117 16.4425 8.82012Z" fill="#0382E4"/>
<path d="M24.9041 8.77205C24.9041 9.51724 24.1589 10.2624 23.4137 10.2624C22.6685 10.2624 21.9233 9.51724 21.9233 8.77205C21.9233 8.02685 22.6685 7.28165 23.4137 7.28165C24.1589 7.28165 24.9041 8.02685 24.9041 8.77205Z" fill="#0382E4"/>
<path d="M29.9469 8.77205C29.9469 9.51724 29.2017 10.2624 28.4565 10.2624C27.7113 10.2624 26.9661 9.51724 26.9661 8.77205C26.9661 8.02685 27.7113 7.28165 28.4565 7.28165C29.2017 7.28165 29.9469 8.02685 29.9469 8.77205Z" fill="#0382E4"/>
</svg>
