<svg width="20" height="22" viewBox="0 0 20 22" fill="none" xmlns="http://www.w3.org/2000/svg">
<path d="M6.32147 22H13.6791C17.1317 22 19.9408 19.7928 19.9408 17.0801V4.91993C19.9408 2.20718 17.4249 0 14.3328 0H9.21505C9.20421 0 9.19491 0.00383166 9.18407 0.00425741C9.15752 0.00539271 9.13197 0.0104306 9.1065 0.0154686C9.07309 0.0216418 9.04066 0.0285956 9.00969 0.0401615C8.98558 0.0490311 8.96354 0.0602423 8.94142 0.0718082C8.9257 0.080323 8.90755 0.0845095 8.89283 0.0945854L0.228171 5.9913C0.217876 5.99826 0.213902 6.00869 0.204601 6.016C0.177057 6.03799 0.155021 6.06269 0.135334 6.08859C0.121607 6.10711 0.106887 6.12485 0.0970433 6.14493C0.082323 6.17466 0.0764528 6.20588 0.0714859 6.23795C0.0690475 6.25342 0.0592041 6.26726 0.0592041 6.28272V17.0801C0.059746 19.7928 2.86834 22 6.32147 22ZM8.28279 1.53103L6.37159 6.73003C5.18042 5.60345 3.68527 5.40002 2.47938 5.4807L8.28279 1.53103ZM1.04212 6.5293C1.88651 6.25179 4.54438 5.60651 6.12695 7.81213C6.21491 7.93446 6.37891 8.00853 6.55474 8.00853C6.57388 8.00853 6.59303 8.00775 6.61172 8.00584C6.80824 7.9881 6.97179 7.8789 7.02678 7.72953L9.58495 0.771868H14.3328C16.8832 0.771868 18.9584 2.63285 18.9584 4.91993V17.0801C18.9584 19.3671 16.5899 21.2281 13.6791 21.2281H6.32147C3.41065 21.2281 1.04212 19.3671 1.04212 17.0801V6.5293Z" fill="#252525"/>
</svg>
