<svg width="28" height="28" viewBox="0 0 28 28" fill="none" xmlns="http://www.w3.org/2000/svg">
<path d="M11.5963 23.9752C6.26385 23.8754 4.44255 23.7855 3.32307 23.551C2.56566 23.3951 1.90748 23.049 1.42488 22.5471C1.05189 22.1673 0.755269 21.5877 0.525138 20.7836C0.327735 20.1136 0.250852 19.5562 0.141242 18.1947C-0.026551 15.1219 -0.0665511 12.6097 0.141242 9.80268C0.31267 8.25255 0.395788 6.41237 1.53449 5.3388C2.07215 4.83635 2.69761 4.51301 3.39995 4.37934C4.49709 4.16748 9.17139 4 14.0104 4C18.8384 4 23.5231 4.16748 24.6213 4.37934C25.4987 4.54682 26.3216 5.04874 26.8047 5.69595C27.8436 7.35808 27.8618 9.42492 27.9673 11.0416C28.0109 11.8119 28.0109 16.186 27.9673 16.9563C27.8031 19.5113 27.6712 20.4153 27.2982 21.3526C27.0675 21.9443 26.8706 22.2565 26.5299 22.6026C25.9954 23.1351 25.3141 23.4894 24.5766 23.6181C19.9621 23.971 16.0436 24.0476 11.5963 23.9752ZM18.6628 13.7086C16.0956 12.3133 13.6374 11.0194 11.1246 9.68011V17.6928C13.7688 16.2309 16.5563 14.8916 18.6737 13.6976L18.6628 13.7086Z" fill="#252525"/>
</svg>
